<svg width="17" height="16" viewBox="0 0 17 16" fill="none" xmlns="http://www.w3.org/2000/svg">
  <path
    d="M13.867 15.5082C13.8955 15.5404 13.9124 15.5812 13.915 15.6242C13.915 15.6822 13.86 15.7222 13.791 15.7222C12.74 15.4289 11.7653 14.9109 10.934 14.2042C10.865 14.1528 10.7846 14.1187 10.6997 14.1048C10.6148 14.0908 10.5278 14.0975 10.446 14.1242C9.74849 14.2755 9.03675 14.3516 8.323 14.3512C3.726 14.3512 0 11.2752 0 7.47815C0 3.68415 3.726 0.608154 8.323 0.608154C12.92 0.608154 16.646 3.68415 16.646 7.47815C16.609 8.61228 16.2788 9.71747 15.6875 10.6859C15.0962 11.6544 14.2639 12.4531 13.272 13.0042C13.1922 13.0479 13.1246 13.1109 13.0754 13.1874C13.0261 13.2638 12.9968 13.3514 12.99 13.4422C13.1099 14.1919 13.411 14.9011 13.867 15.5082Z"
    fill="white" />
</svg>