<svg width="16" height="17" viewBox="0 0 16 17" fill="none" xmlns="http://www.w3.org/2000/svg">
  <path
    d="M8 0.165161C6.41775 0.165161 4.87103 0.634353 3.55544 1.5134C2.23985 2.39246 1.21447 3.64188 0.608967 5.10369C0.00346627 6.5655 -0.15496 8.17403 0.153721 9.72588C0.462403 11.2777 1.22433 12.7032 2.34315 13.822C3.46197 14.9408 4.88743 15.7028 6.43928 16.0114C7.99113 16.3201 9.59966 16.1617 11.0615 15.5562C12.5233 14.9507 13.7727 13.9253 14.6518 12.6097C15.5308 11.2941 16 9.74741 16 8.16516C15.9977 6.04414 15.1541 4.01067 13.6543 2.51088C12.1545 1.01109 10.121 0.16749 8 0.165161ZM12.1656 6.25556L7.2152 11.206C7.06518 11.3559 6.86173 11.4402 6.6496 11.4402C6.43747 11.4402 6.23402 11.3559 6.084 11.206L3.8344 8.95556C3.68868 8.80468 3.60804 8.6026 3.60986 8.39284C3.61169 8.18308 3.69582 7.98243 3.84415 7.83411C3.99247 7.68578 4.19312 7.60164 4.40288 7.59982C4.61264 7.598 4.81472 7.67863 4.9656 7.82436L6.6496 9.50916L11.0344 5.12516C11.1859 4.98293 11.3867 4.9052 11.5945 4.90843C11.8022 4.91166 12.0006 4.99558 12.1475 5.14245C12.2945 5.28931 12.3786 5.4876 12.3819 5.69534C12.3853 5.90309 12.3077 6.104 12.1656 6.25556Z"
    fill="white" />
</svg>